<svg xmlns="http://www.w3.org/2000/svg" xmlns:xlink="http://www.w3.org/1999/xlink" viewBox="0 0 62 64.7"><defs>
<style>
.cls-1{
  isolation:isolate;
}
.cls-2,.cls-7{
  fill: #557283;
}
.cls-2,.cls-5{
  stroke:#fff;
  stroke-miterlimit:10;
  stroke-width:1px;
  fill: transparent
}
.cls-3,.cls-6{
  opacity:0.75;
}
.cls-4{
  fill:#fff;
}
.cls-5{
  fill:none;
}
.cls-6{
  mix-blend-mode:hard-light;
}
</style>
</defs><title>delivery_logo</title><g class="cls-1"><g id="Слой_1" data-name="Слой 1"><rect class="cls-2" x="1" y="1" width="60" height="60"/><image class="cls-3" width="220" height="258" transform="translate(7.2 2.78) scale(0.24)"/><path  class="cls-4" d="M16.08,33.59C35.34,10.2,49.75,8.09,49.75,8.09c-5.85,9-10.45,17.62-11.69,25L42.3,36,37.5,46.15c0.42-2.69-2.16-8.43-2.16-8.43s-14.72,1.7-16,2.32S14.22,45.82,13,50.33L12.25,33.19Z" transform="translate(1 1)"/><path class="cls-5" d="M16.08,33.59C35.34,10.2,49.75,8.09,49.75,8.09c-5.85,9-10.45,17.62-11.69,25L42.3,36,37.5,46.15c0.42-2.69-2.16-8.43-2.16-8.43s-14.72,1.7-16,2.32S14.22,45.82,13,50.33L12.25,33.19Z" transform="translate(1 1)"/><image class="cls-6" width="145" height="151" transform="translate(21.26 3.84) scale(0.24)"/><path  class="cls-7" d="M26.34,30.64C25,28.44,42.16,13,44.16,11.66c0,0-10.79,15.65-10.74,19.29Z" transform="translate(1 1)"/><path class="cls-5" d="M26.34,30.64C25,28.44,42.16,13,44.16,11.66c0,0-10.79,15.65-10.74,19.29Z" transform="translate(1 1)"/><image class="cls-3" width="59" height="45" transform="translate(2.39 3.14) scale(0.24)"/><path  class="cls-4" d="M2.39,8.68l1.4-.17a1,1,0,0,0,1,1.06A0.89,0.89,0,0,0,5.5,9.26a1.43,1.43,0,0,0,.26-0.91Q5.76,7,4.8,7a1,1,0,0,0-.89.58L2.72,7,2.94,3.27H7.09V5H6l-0.1-.55H4L3.91,6.23a2.12,2.12,0,0,1,1.26-.42,2.09,2.09,0,0,1,1.68.71,2.57,2.57,0,0,1,.6,1.72A2.64,2.64,0,0,1,6.81,10a2.45,2.45,0,0,1-1.94.73,2.46,2.46,0,0,1-1.73-.56A2.46,2.46,0,0,1,2.39,8.68Z" transform="translate(1 1)"/><path  class="cls-4" d="M13.33,8.52l-0.06,2.15H8.53a5.58,5.58,0,0,1,.16-1.5,3.44,3.44,0,0,1,.52-1,7.56,7.56,0,0,1,1-1.1A9.7,9.7,0,0,0,11.32,5.9a1.35,1.35,0,0,0,.27-0.82,0.8,0.8,0,0,0-.2-0.56,0.66,0.66,0,0,0-.5-0.22,0.7,0.7,0,0,0-.65.36A2.73,2.73,0,0,0,10,5.85L8.63,5.79a3.25,3.25,0,0,1,.32-1.61,1.88,1.88,0,0,1,.87-0.79A2.88,2.88,0,0,1,11,3.14a2.28,2.28,0,0,1,1.66.59,2,2,0,0,1,.6,1.46,2,2,0,0,1-.18.87,2.18,2.18,0,0,1-.46.67,9.75,9.75,0,0,1-1,.77A5.19,5.19,0,0,0,10.3,8.7a2.16,2.16,0,0,0-.32.79h2.16v-1h1.19Z" transform="translate(1 1)"/></g></g></svg>
