<?xml version="1.0" encoding="utf-8"?>
<!-- Generator: Adobe Illustrator 19.2.0, SVG Export Plug-In . SVG Version: 6.00 Build 0)  -->
<svg version="1.1" id="map_x5F_line" xmlns:x="&ns_extend;" xmlns:i="&ns_ai;" xmlns:graph="&ns_graphs;"
	 xmlns="http://www.w3.org/2000/svg" xmlns:xlink="http://www.w3.org/1999/xlink" x="0px" y="0px" viewBox="0 0 564.75 447.75"
	 enable-background="new 0 0 564.75 447.75" xml:space="preserve">
<metadata>
	<sfw  xmlns="&ns_sfw;">
		<slices></slices>
		<sliceSourceBounds  bottomLeftOrigin="true" height="347.88" width="466.27" x="82.95" y="-433.44"></sliceSourceBounds>
	</sfw>
</metadata>
<path id="line" fill="none" stroke="#A14944" stroke-width="10" stroke-miterlimit="10" d="M94.33,322.5
	c1.8-6.49,4.62-9.23,6.96-10.5c1.8-0.98,4.03-1.48,4.42-3.17c0.46-2-2.26-3.13-1.92-5.07c0.5-2.9,7.03-2.82,7.63-5.9
	c0.32-1.6-1.35-2.1-1.79-4.6c-0.54-3.1,1.59-4.74,2.97-8.37c2.24-5.9-1.17-7.48,0.75-11.93c2.18-5.04,6.77-3.52,12.52-10.32
	c3.48-4.12,1.56-5.43,5.81-8.04c4.26-2.61,9.32-3.65,11.26-3.85c1.94-0.2,4.84,0.23,5.56,0.19c0.71-0.05,4-1.36,9.79-4.36
	c4.51-2.34,3.99-1.84,7.43-3.7c4.11-2.22,6.16-3.33,8.37-5.08c3.96-3.14,3.62-4.26,5.61-4.72c3.85-0.89,5.71,3.16,9.87,2.14
	c2.18-0.53,2.48-1.84,5.37-2.31c1.33-0.22,2.46-0.07,4.65,0.23c5.84,0.81,6.62,1.97,8.7,1.24c2.21-0.76,2.16-2.35,4.33-2.74
	c1.95-0.35,3.29,0.69,5.09,1.44c3.13,1.29,5.86,0.96,10.21,0.42c2.41-0.3,6.18-1.71,13.62-4.51c3.57-1.35,5.37-2.03,6.06-2.4
	c1.43-0.78,7.1-3.98,10.28-10.3c3-5.96,0.08-7.33,3.5-14.53c1.48-3.11,2.34-3.53,4.82-8.68c1.26-2.62,1.49-3.46,2.65-4.41
	c2.46-2.01,4.84-1.03,7.09-3.1c1.42-1.3,1.34-2.49,2.13-4.06c2.82-5.56,11.94-6.64,14.77-6.97c7.55-0.89,13.54,1.23,15.53-1.68
	c0.28-0.4,0.93-1.57,2.31-2.68c0.62-0.5,1.75-1.42,3.22-1.61c1.84-0.24,3.36,2.36,4.23,1.27c1.31-1.64,5.72-1.12,8.94-3.41
	c7.22-5.13,16.96-13.8,17.65-16.03c0.69-2.22-0.67-2.34-0.92-11.36c-0.18-6.5,0.37-10.27,2.39-11.16c1.23-0.55,2.6,0.15,3.53-0.88
	c0.65-0.72,0.45-1.59,0.54-2.8c0.27-3.41,2.63-5.85,3.28-6.52c2.24-2.32,4.97-2.96,5.75-3.13c4.41-0.98,8.35-1.77,11.68,2.05
	c2.97,3.4,5.45,3.26,11.4-1.14c17.04-1.38,30.94-6.48,42.99-12.89c0.54-0.39,5.74-0.54,12.57-1.36c3.13-0.37,6.2-0.81,6.2-0.81
	s8.44-3.44,13.2-3.47c2.31-0.02,4.17,0.46,5.21,0.79"/>
<ellipse id="dot_x5F_2" transform="matrix(0.1908 -0.9816 0.9816 0.1908 -244.6637 357.1991)" fill="none" stroke="#A14944" stroke-width="7" stroke-miterlimit="10" cx="94.33" cy="327" rx="7.88" ry="7.88"/>
<ellipse id="dot_x5F_1" transform="matrix(0.1908 -0.9816 0.9816 0.1908 285.4993 540.2266)" fill="none" stroke="#A14944" stroke-width="7" stroke-miterlimit="10" cx="470.42" cy="96.94" rx="7.88" ry="7.88"/>
<g id="rose">
	<g>
		<polygon fill="#A14944" stroke="#A14944" stroke-miterlimit="10" points="487.78,313.12 480.83,332.08 487.2,325.62 
			485.27,356.46 494.15,351.46 		"/>
	</g>
	<g>
		<polygon fill="#A14944" stroke="#A14944" stroke-miterlimit="10" points="433.34,363.14 452.3,370.09 445.84,363.71 
			476.67,365.65 471.67,356.76 		"/>
	</g>
	<g>
		<g>
			<polygon fill="#A14944" points="537.74,366.85 518.78,359.9 525.24,366.27 494.41,364.34 499.41,373.22 			"/>
			<path fill="#A14944" d="M537.74,366.85c-3.21-1.01-6.41-2.07-9.61-3.12c-1.6-0.53-3.21-1.02-4.78-1.62l-4.74-1.74l0.52-0.83
				l6.46,6.37l0.95,0.94l-1.33-0.08l-30.83-1.93l0.47-0.74l5,8.88l-0.52-0.25l19.17-3.19l4.79-0.81c1.6-0.26,3.21-0.43,4.82-0.65
				L537.74,366.85z M537.74,366.85l-9.52,1.95c-1.59,0.31-3.17,0.67-4.77,0.94l-4.79,0.79l-19.17,3.19l-0.35,0.06l-0.17-0.31
				l-5-8.88l-0.45-0.8l0.92,0.06l30.83,1.93l-0.38,0.85l-6.46-6.37l-1.63-1.61l2.16,0.79l4.74,1.73c1.59,0.56,3.13,1.23,4.7,1.86
				C531.51,364.28,534.64,365.54,537.74,366.85z"/>
		</g>
	</g>
	<g>
		<polygon fill="#A14944" stroke="#A14944" stroke-miterlimit="10" points="484.02,417.24 490.97,398.28 484.6,404.74 
			486.53,373.91 477.65,378.91 		"/>
	</g>
	<g>
		<polygon fill="#A14944" stroke="#A14944" stroke-miterlimit="10" points="456.01,334.99 466.18,349.83 464.06,343.43 
			483.76,364.43 483.44,358.14 		"/>
	</g>
	<g>
		<polygon fill="#A14944" stroke="#A14944" stroke-miterlimit="10" points="515.87,334.99 501.03,345.17 507.43,343.04 
			486.43,362.74 492.71,362.42 		"/>
	</g>
	<g>
		<polygon fill="#A14944" stroke="#A14944" stroke-miterlimit="10" points="515.65,394.99 505.47,380.15 507.6,386.55 487.9,365.56 
			488.22,371.84 		"/>
	</g>
	<g>
		<polygon fill="#A14944" stroke="#A14944" stroke-miterlimit="10" points="455.36,395 470.2,384.83 463.8,386.95 484.8,367.25 
			478.52,367.57 		"/>
	</g>
	<defs>
		<filter id="Adobe_OpacityMaskFilter" filterUnits="userSpaceOnUse" x="439.92" y="319.27" width="91.82" height="91.82">
			
				<feColorMatrix  type="matrix" values="-1 0 0 0 1  0 -1 0 0 1  0 0 -1 0 1  0 0 0 1 0" color-interpolation-filters="sRGB" result="source"/>
			<feFlood  style="flood-color:white;flood-opacity:1" result="back"/>
			<feBlend  in="source" in2="back" mode="normal"/>
		</filter>
	</defs>
	<mask maskUnits="userSpaceOnUse" x="439.92" y="319.27" width="91.82" height="91.82" id="SVGID_1_">
		<g filter="url(#Adobe_OpacityMaskFilter)">
			<g>
				<polygon fill="#FFFFFF" stroke="#FFFFFF" stroke-miterlimit="10" points="487.76,309.54 495.69,332.04 477.17,329.96 				"/>
			</g>
			<g>
				<polygon fill="#FFFFFF" stroke="#FFFFFF" stroke-miterlimit="10" points="540.4,367.26 517.64,374.4 520.37,355.97 				"/>
			</g>
			<g>
				<polygon fill="#FFFFFF" stroke="#FFFFFF" stroke-miterlimit="10" points="429.23,362.5 451.95,355.2 449.35,373.65 				"/>
			</g>
			<g>
				<polygon fill="#FFFFFF" stroke="#FFFFFF" stroke-miterlimit="10" points="484,421.93 476.6,399.25 495.06,401.76 				"/>
			</g>
			<polygon fill="none" points="466.43,340.64 460.67,345.51 441.23,317.22 			"/>
			<polygon fill="#FFFFFF" stroke="#FFFFFF" stroke-miterlimit="10" points="464.41,339.12 458.65,343.99 439.22,315.69 			"/>
			<polygon fill="#FFFFFF" stroke="#FFFFFF" stroke-miterlimit="10" points="510.95,344.65 505.88,339.08 533.44,318.62 			"/>
			<polygon fill="#FFFFFF" stroke="#FFFFFF" stroke-miterlimit="10" points="461.42,384.09 466.58,389.59 439.33,410.46 			"/>
			<polygon fill="#FFFFFF" stroke="#FFFFFF" stroke-miterlimit="10" points="505.09,389.2 511.26,383.98 530.45,412.48 			"/>
		</g>
	</mask>
	
		<circle mask="url(#SVGID_1_)" fill="none" stroke="#A14944" stroke-width="7" stroke-miterlimit="10" cx="485.83" cy="365.18" r="42.41"/>
	<g>
		<path fill="#A14944" d="M420.85,371.92h-1.91l-2.85-10.42c-0.08-0.3-0.11-0.42-0.4-0.54c-0.24-0.11-0.38-0.19-0.38-0.48
			c0-0.53,0.66-0.53,1.02-0.53h3.71c0.35,0,0.91-0.05,0.91,0.46c0,0.54-0.72,0.4-0.72,0.99c0,0.14,0.03,0.24,0.08,0.4l1.58,5.87
			L420.85,371.92z M424.54,359.95l2.1,7.99l-1.01,3.99h-1.91l-2.08-7.72l1.09-4.26H424.54z M426.51,364.83l0.61-2.5
			c0.05-0.22,0.11-0.42,0.11-0.66c0-0.83-1.01-0.7-1.01-1.3c0-0.37,0.34-0.43,0.62-0.43h2.07c0.3,0,0.66,0.03,0.66,0.45
			c0,0.24-0.13,0.3-0.34,0.4c-0.8,0.35-1.01,0.91-1.22,1.71l-1.02,4.07l-0.03-0.02L426.51,364.83z"/>
	</g>
	<g>
		<path fill="#A14944" d="M482.41,299.9h0.03l0.9,1.6v4.83c0.26,2,1.28,1.38,1.28,2.06c0,0.5-0.66,0.46-0.83,0.46h-1.83
			c-0.18,0-0.83,0.03-0.83-0.46c0-0.69,1.02-0.06,1.28-2.06V299.9z M490.75,304.99v3.87h-2.39l-5.86-10.1
			c-0.26-0.45-0.34-0.69-0.87-0.86c-0.27-0.1-0.48-0.16-0.48-0.51c0-0.48,0.48-0.48,0.82-0.5h4.11L490.75,304.99z M489.82,299.79
			c0-2.29-1.31-1.68-1.31-2.42c0-0.45,0.53-0.48,0.69-0.48h2.18c0.16,0,0.69,0.03,0.69,0.48c0,0.74-1.31,0.13-1.31,2.42v3.89h-0.03
			l-0.9-1.62V299.79z"/>
	</g>
	<g>
		<path fill="#A14944" d="M540.59,357.11h4.23v11.97h-4.23c-0.06,0-0.59-0.03-0.59-0.5c0-0.22,0.14-0.37,0.35-0.43
			c0.56-0.18,0.54-0.27,0.54-0.86v-8.39c0-0.59,0.02-0.69-0.54-0.86c-0.21-0.06-0.35-0.21-0.35-0.43
			C539.99,357.15,540.52,357.11,540.59,357.11z M545.53,357.11h3.57v3.25c0,0.08-0.02,0.38-0.5,0.38c-0.27,0-0.35-0.16-0.43-0.4
			c-0.42-1.3-1.23-2.08-2.64-2.3V357.11z M545.53,362.46c0.67-0.18,0.98-0.8,1.12-1.41c0.08-0.27,0.18-0.53,0.51-0.53
			c0.5,0,0.42,0.58,0.42,0.7v3.46c0,0.13,0.08,0.7-0.42,0.7c-0.34,0-0.43-0.26-0.51-0.53c-0.14-0.61-0.45-1.23-1.12-1.41V362.46z
			 M545.53,368.16c1.3-0.16,2.29-1.04,2.72-2.32c0.11-0.24,0.21-0.5,0.5-0.5c0.51,0,0.46,0.48,0.46,0.54v3.2h-3.68V368.16z"/>
	</g>
	<g>
		<path fill="#A14944" d="M485.84,421.92c-0.61,0.21-1.14,0.66-1.14,1.31c0,0.78,0.43,1.26,2.34,2c2.83,1.09,3.47,2.59,3.47,4.07
			c0,2.48-2.06,4.1-4.43,4.15v-0.93c0.77-0.24,1.42-0.59,1.46-1.47c0.03-1.01-1.15-1.42-1.92-1.76c-2.02-0.85-3.89-1.76-3.89-4.27
			c0-2.43,1.76-3.94,4.11-4.02V421.92z M481.73,429.62c0-0.34,0.06-0.78,0.51-0.78c0.32,0,0.54,0.26,0.59,0.53
			c0.22,1.28,1.12,2.86,2.53,3.15v0.93c-1.39-0.03-1.7-0.59-2.27-0.59c-0.51,0-0.46,0.53-0.86,0.53c-0.5,0-0.5-0.59-0.5-0.67V429.62
			z M490.08,424.45c0,0.37-0.06,0.77-0.53,0.77c-0.38,0-0.53-0.3-0.58-0.62c-0.18-1.18-1.17-2.4-2.42-2.67v-0.93
			c1.01,0.02,2.08,0.62,2.26,0.62c0.42,0,0.38-0.58,0.8-0.58c0.5,0,0.46,0.54,0.46,0.67V424.45z"/>
	</g>
</g>
</svg>
